<svg width="125" height="125" viewBox="0 0 125 125" fill="none" xmlns="http://www.w3.org/2000/svg">
<path fill-rule="evenodd" clip-rule="evenodd" d="M119 6H6V119H119V6ZM0 0V125H125V0H0Z" fill="black"/>
<path d="M34.56 95C33.92 95 33.376 94.808 32.928 94.424C32.544 93.976 32.352 93.432 32.352 92.792V30.104C32.352 29.4 32.544 28.856 32.928 28.472C33.376 28.024 33.92 27.8 34.56 27.8H39.36C40.384 27.8 41.216 28.312 41.856 29.336L62.112 68.12L82.56 29.336C82.688 28.952 82.944 28.6 83.328 28.28C83.776 27.96 84.32 27.8 84.96 27.8H89.664C90.368 27.8 90.912 28.024 91.296 28.472C91.744 28.856 91.968 29.4 91.968 30.104V92.792C91.968 93.432 91.744 93.976 91.296 94.424C90.848 94.808 90.304 95 89.664 95H84.96C84.32 95 83.776 94.808 83.328 94.424C82.944 93.976 82.752 93.432 82.752 92.792V45.56L66.72 76.856C66.08 78.2 65.056 78.872 63.648 78.872H60.672C59.264 78.872 58.24 78.2 57.6 76.856L41.472 45.56V92.792C41.472 93.432 41.248 93.976 40.8 94.424C40.416 94.808 39.904 95 39.264 95H34.56Z" fill="black"/>
</svg>
